<svg id="Layer_1" data-name="Layer 1" xmlns="http://www.w3.org/2000/svg" width="750" height="215.27" viewBox="0 0 750 215.27"><defs><style>.cls-1{fill:#143051;}.cls-2{fill:#30dd42;}.cls-3{fill:#2dda3f;}.cls-4{fill:#1bc62f;}.cls-5{fill:#2ad73d;}.cls-6{fill:#26d239;}.cls-7{fill:#20cb33;}.cls-8{fill:#23ce36;}.cls-9{fill:#21cd34;}.cls-10{fill:#33e044;}.cls-11{fill:#29d53b;}.cls-12{fill:#bef2c3;}.cls-13{fill:#bff4c4;}.cls-14{fill:#1dc831;}.cls-15{fill:#fefefe;}.cls-16{fill:#1eca32;}.cls-17{fill:#bcf0c1;}.cls-18{fill:#2cd83e;}.cls-19{fill:#27d339;}.cls-20{fill:#25d138;}</style></defs><title>michat_logo</title><path class="cls-1" d="M538.39,348.36c0-.39.05-.77.05-1.15q0-13.75,0-27.49a4.3,4.3,0,0,1,.15-1.71h16.87l.15,1.15V320a2.48,2.48,0,0,0,0,1.15q-.14,5.91,0,11.8a39.9,39.9,0,0,0,0,4.64q-.14,4.63,0,9.27a2.6,2.6,0,0,0,0,.39v17.29c0,.11,0,.27.16.31a2,2,0,0,0,.51-.77,25.29,25.29,0,0,1,13.9-12.26,39.47,39.47,0,0,1,21.48-1.4,26.08,26.08,0,0,1,12.24,6c5.16,4.47,7.64,10.26,8.44,16.91a20.63,20.63,0,0,0,.32,3.14c0,.35-.07.71-.07,1.06q0,26.79,0,53.58c0,.35.05.7.07,1.05v.37c-.08.65-.52.78-1.08.78l-15,0c-1.2,0-1.22,0-1.08-1.32,0-.28.05-.57.05-.86q0-24.74,0-49.47a31.93,31.93,0,0,0-.19-3.66c-.63-5.21-2.84-9.51-7.45-12.3A18.46,18.46,0,0,0,577,363.16a22.85,22.85,0,0,0-13.85,5.59c-4.69,3.95-6.65,9.22-7.33,15.11a96.36,96.36,0,0,0-.24,10.61c0,3.71,0,7.41.06,11.11a3.41,3.41,0,0,0,0,1.35,14.79,14.79,0,0,0,0,2.9c0,.39-.06.77-.06,1.16,0,7.07,0,14.15,0,21.23,0,.76-.17,1-1,1q-7.68,0-15.35,0c-.77,0-1-.24-.91-.95,0-.35.06-.71.06-1.06V363.24c0-.32,0-.64-.05-1q.14-3.87,0-7.74a42.06,42.06,0,0,0,0-4.63A5,5,0,0,0,538.39,348.36Z" transform="translate(0 -267.37)"/><path class="cls-1" d="M466.84,406.89a3.91,3.91,0,0,0,1.19,1.24l.18.18a9.41,9.41,0,0,0,2,1.86,3.82,3.82,0,0,0,1.1.85l.83.67.36.24a22.05,22.05,0,0,0,4.86,2.93.8.8,0,0,0,.54.28,15.92,15.92,0,0,0,4.09,1.64,1.41,1.41,0,0,0,.75.3,5,5,0,0,0,1.77.47.12.12,0,0,0,.15,0,.67.67,0,0,0,.62.18,5.94,5.94,0,0,0,1.9.46,30.42,30.42,0,0,0,6.22.84l.58,0a4,4,0,0,0,1.54.06,22.36,22.36,0,0,0,5-.05,2.8,2.8,0,0,0,1.15-.06.86.86,0,0,0,.63-.05,19.79,19.79,0,0,1,1.11-.13.81.81,0,0,0,.61-.05,1.45,1.45,0,0,0,.94-.13,10.34,10.34,0,0,0,2.92-.5,6.93,6.93,0,0,0,2.11-.46,15,15,0,0,0,2.93-.82,2.49,2.49,0,0,0,1.16-.46,23.87,23.87,0,0,0,6.21-2.83.32.32,0,0,0,.36-.21,7,7,0,0,0,2.14-1.33,1.39,1.39,0,0,0,.75-.45l.19-.24c.58.14.35.61.36.94,0,3.61,0,7.22,0,10.84v.58c0,1.29,0,2.57,0,3.86v.2l-.2.28-4.06,2.06-.2.09-3.88,1.62-.37.05c-.71,0-1.25.49-1.93.55a.36.36,0,0,0-.42.12c-.27,0-.55,0-.77.18l-5,1-.93.08a3.4,3.4,0,0,0-1.78.34l-.54.05c-.61-.26-1.16.19-1.75.18h-.38a15.08,15.08,0,0,0-3.29.05,12.28,12.28,0,0,0-2.5.07h-.6a4.3,4.3,0,0,0-1.56-.05c-1.08-.23-2.17.18-3.26-.06h-.78l-.54,0c-.49-.4-1-.21-1.58-.16a10.84,10.84,0,0,0-2.32-.4.33.33,0,0,0-.39,0,1.28,1.28,0,0,0-1-.2,47.7,47.7,0,0,1-7.72-1.86c-1.16-.38-2.32-.71-3.49-1.07l-.31-.19-.26-.14a.29.29,0,0,0-.35,0,9.39,9.39,0,0,0-2.75-1.26l-.74-.29-.22-.18-.19,0a15,15,0,0,0-2.34-1.32l-.38-.23a.1.1,0,0,0-.14-.08,15.44,15.44,0,0,0-2-1.18c-.19-.09-.3-.34-.56-.29a2.29,2.29,0,0,0-.89-.58c-.1-.31-.36-.38-.63-.43-.21-.24-.36-.54-.73-.54a4.7,4.7,0,0,0-.95-.94,49.74,49.74,0,0,1-15.93-20.89c-.82-2-1.43-4.12-2.15-6.17a.64.64,0,0,0-.15-.59c-.2-1-.4-1.93-.61-2.9-.52-2.3-.73-4.64-1.12-7a113.06,113.06,0,0,1-.17-12.35,1.45,1.45,0,0,0,.12-.35,57.17,57.17,0,0,1,1-7.81c.39-2.14,1.09-4.21,1.55-6.33l.09-.24a1,1,0,0,0,.25-.74,3.29,3.29,0,0,0,.21-.42,52,52,0,0,1,13.64-20.67c1.86-1.74,3.91-3.22,5.86-4.83a26.62,26.62,0,0,0,2.92-1.91h0a3.39,3.39,0,0,0,1.36-.76,3.3,3.3,0,0,0,1.35-.79h0c.56,0,.95-.43,1.44-.64l0,0,5.7-2.43h0a4.71,4.71,0,0,0,1.74-.58.34.34,0,0,0,.37-.1,9.57,9.57,0,0,0,2.17-.6.1.1,0,0,0,.14-.05,1.08,1.08,0,0,0,.81-.23l.36,0a2.43,2.43,0,0,0,1.21-.32h0l5.37-.87a2.29,2.29,0,0,0,1.16-.14,3.6,3.6,0,0,0,1.66-.19,3.23,3.23,0,0,0,1.24,0h9.09l1.82,0a6.28,6.28,0,0,0,2.24.21.37.37,0,0,0,.45,0,3.58,3.58,0,0,0,1.65.22,1.43,1.43,0,0,0,1,.15l.55.06h0a.34.34,0,0,0,.43.09l.58.09.07.06.09,0v0a4.85,4.85,0,0,0,2,.37h0a3.72,3.72,0,0,0,1.58.35.17.17,0,0,0,.25,0,.94.94,0,0,0,.72.2.12.12,0,0,0,.16,0,1.67,1.67,0,0,0,1,.25,1.9,1.9,0,0,0,1.43.28l0,.06.1.06a.59.59,0,0,0,.55.23,3.23,3.23,0,0,0,1.24.4,1.12,1.12,0,0,0,.74.26,1.29,1.29,0,0,0,.81.3.58.58,0,0,0,.58.22.19.19,0,0,0,.16.08.57.57,0,0,0,.57.25.89.89,0,0,0,.59.28h0c.1.16.27.13.43.16h0a.34.34,0,0,0,.39.21l.05,0a.74.74,0,0,0,.57.27.32.32,0,0,0,.34.21l.72.4,0,.05.08,2.51a12,12,0,0,0,0,2.54.09.09,0,0,0,0,.14,3.82,3.82,0,0,0,0,1.39,4.42,4.42,0,0,0,0,1.54c-.08,2.52-.09,5,0,7.56-.11.34-.35.36-.64.26a.26.26,0,0,0-.33-.12,2.38,2.38,0,0,0-1.22-.65.41.41,0,0,0-.42-.17,2.45,2.45,0,0,0-1.13-.61l-.73-.31a.59.59,0,0,0-.46-.23l-.06-.07h-.09a.82.82,0,0,0-.72-.28.86.86,0,0,0-.63-.32,9.87,9.87,0,0,0-2.58-1,.31.31,0,0,0-.37-.15,16.6,16.6,0,0,0-4.24-1.28.72.72,0,0,0-.66-.15,7.54,7.54,0,0,0-2.25-.48l-.58-.07-.56-.06h0a7.88,7.88,0,0,0-2.37-.32l-.73,0a.33.33,0,0,0-.4-.07l-1.19-.09a2.67,2.67,0,0,0-1.16,0,3.2,3.2,0,0,0-1.79,0,20,20,0,0,0-4.76-.08,14.18,14.18,0,0,0-3.5.32,14.86,14.86,0,0,0-4.28.75l-.36.06a.34.34,0,0,0-.39.13l-.38.08c-.31-.1-.55.11-.81.21h-.08l-.06.06a1,1,0,0,0-.71.23l-.27.05a.61.61,0,0,0-.59.23h0a.85.85,0,0,0-.59.2.28.28,0,0,0-.34.11c-.15,0-.29,0-.35.18-.2-.1-.34,0-.48.12a2.68,2.68,0,0,0-1.33.62.7.7,0,0,0-.57.21,4,4,0,0,0-1.48.77l-.31.07A10.12,10.12,0,0,0,475,342.9a.68.68,0,0,0-.55.33l0,0c-.22.09-.5.1-.57.41-.14.05-.32,0-.39.22h0a3.2,3.2,0,0,0-1.12.8l-.18.19h-.08v.06H472l0,.06-.32.25a.54.54,0,0,0-.51.41.42.42,0,0,0-.44.34l0,0a.35.35,0,0,0-.33.27,1.07,1.07,0,0,0-.62.56.88.88,0,0,0-.62.55l0,0-.28.24-.13.13A33.14,33.14,0,0,0,461.12,358c-3.38,6.78-4.49,14-4.33,21.5a48.07,48.07,0,0,0,2.51,14.86,36.37,36.37,0,0,0,6.23,11.2,5.47,5.47,0,0,0,.56.51C466.18,406.45,466.52,406.65,466.84,406.89Z" transform="translate(0 -267.37)"/><path class="cls-1" d="M712,418c-1.17-4.57-1.14-9.24-1.13-13.91,0-13.43,0-26.86,0-40.29,0-.86-.29-1-1.05-1-3.67,0-7.35,0-11,0-.82,0-1-.26-1-1,0-3.35,0-6.71,0-10.06,0-.82.24-1,1-1,3.64,0,7.29,0,10.92,0,1,0,1.15-.29,1.14-1.18,0-5.9,0-11.79,0-17.69,0-1.51-.31-1.4,1.36-1.4h12.95c.32,0,.64,0,1-.07l.75.08c0,.24.11.48.16.72a3.6,3.6,0,0,0-.08.56v17.81a2.65,2.65,0,0,0,.05.38c-.24.87.37.77.89.77h12.46c2.61,0,5.22,0,7.83,0,.59,0,.76.16.76.75q0,5.26,0,10.53c0,.73-.29.84-.92.83-6.66,0-13.33,0-20,0-.85,0-1.13.23-1.09,1.09.08,1.41.05,2.83.07,4.25,0,.32-.06.64-.06,1q0,20.11,0,40.24a3.28,3.28,0,0,0,.18,1.32l0,.39a5.79,5.79,0,0,0,.52,2.52.29.29,0,0,0,.16.34,1.53,1.53,0,0,0,.42,1.2,1.61,1.61,0,0,0,.44.82c0,.31.27.49.42.72l.56.63a1.42,1.42,0,0,0,.71.7.2.2,0,0,0,.16.07h0a4.59,4.59,0,0,0,2.36,1.49,1.09,1.09,0,0,0,.75.28.65.65,0,0,0,.6.16l.34.13a1.41,1.41,0,0,0,1,.22l.55.09a14.63,14.63,0,0,0,4.67.05h.39l.28-.11a.46.46,0,0,0,.48,0l.19,0a2.75,2.75,0,0,0,1.39-.23,2.36,2.36,0,0,0,1-.26.65.65,0,0,0,.58-.19l.41-.09a.66.66,0,0,0,.58-.28,4.45,4.45,0,0,0,2-.89.69.69,0,0,0,.54-.33,1.49,1.49,0,0,0,.77-.56l.19-.09.42.06.08.43s-.06.08,0,.13c-.17,2.34,0,4.68-.07,7,0,1.79,0,3.58.05,5.38l0,.19-.11.58-1.37.73-4,1.4a12.55,12.55,0,0,0-2.51.43c-.21,0-.42-.07-.6.1-.29,0-.61-.11-.81.22l-.72,0c-.51,0-1-.21-1.55,0a18.75,18.75,0,0,0-3.09,0,4.2,4.2,0,0,0-1.93,0c-.19-.08-.34-.29-.59-.18h-1c-.52,0-1-.33-1.53-.18-1.66-.59-3.44-.66-5.1-1.28a16.66,16.66,0,0,1-3.87-1.87,1.89,1.89,0,0,0-.54-.17,17.92,17.92,0,0,0-2.47-1.77l-2.12-2.16-.76-1c0-.28-.13-.38-.38-.39l-1.14-2.27-.36-.72c-.23-.55-.46-1.09-.7-1.64a1.07,1.07,0,0,0-.3-.74l0,0-.06-.34-.11-.32Z" transform="translate(0 -267.37)"/><path class="cls-1" d="M688.3,373.85c0,.21.05.43.07.65s.07.6.11.9a4.48,4.48,0,0,0,.14,1.41c0,1.22.09,2.43.09,3.65q0,12.3,0,24.59c0,.39,0,.77.06,1.15-.09,3.77-.1,7.54,0,11.3q-.13,3.24,0,6.49a21.19,21.19,0,0,0,0,3.38c0,1.54-.09,3.08,0,4.62,0,.91-.2,1.21-1.16,1.21-4.82,0-9.64,0-14.46,0l-.51,0h0a2.18,2.18,0,0,1-.13-1.13c0-2.66,0-5.32-.06-8a.08.08,0,0,0,0-.13.33.33,0,0,0-.1-.41s0-.12,0-.12-.15,0-.14.12l-.3.33v-.05l0,.08-1.4,1.81a39.23,39.23,0,0,1-3.61,3.45c-.28-.07-.41.1-.51.31-.14,0-.32,0-.39.2l-3.69,1.9c-3.08,1.32-6.36,1.69-9.62,2.19-.82.13-1.67-.19-2.46.19-.22-.28-.53-.17-.81-.17a42.14,42.14,0,0,1-5.83-.34l-4.64-.82c-.21-.21-.4-.48-.76-.4l-.42-.11a.29.29,0,0,0-.36-.2l-1.88-.67a7.92,7.92,0,0,0-2.36-1.18l-2.25-1.66c-1.29-1.13-2.54-2.3-3.72-3.54v0l-.22-.23a.15.15,0,0,0-.08-.16c0-.1,0-.18-.13-.19a2.77,2.77,0,0,0-.7-.9.37.37,0,0,0-.23-.33,5.9,5.9,0,0,0-.93-1.42,2.73,2.73,0,0,0-.6-1.14,3.82,3.82,0,0,0-.54-1.26l-.19-.39-.15-.41-.1-.33-.07-.19-.12-.4a.69.69,0,0,0-.21-.58,4.07,4.07,0,0,0-.35-1.37l-.3-1.9c-.62-5.12-.15-10.08,2.33-14.7,2.69-5,7-8.2,12.08-10.41a47.77,47.77,0,0,1,17.39-3.52c5.6-.2,11.21-.05,16.81-.06.87,0,1.17-.21,1.14-1.13a58.59,58.59,0,0,0-.4-8.27c-1.24-7.24-5.22-11.25-12.52-12.38a43.79,43.79,0,0,0-20.47,1.9,42.65,42.65,0,0,0-9.4,4.41c-.18.12-.36.36-.59.24s-.13-.46-.13-.7c0-4.51,0-9,0-13.53a1,1,0,0,1,.63-1,45.72,45.72,0,0,1,14.61-4.39,73.19,73.19,0,0,1,17.62-.43c6.35.67,12.38,2.3,17.53,6.33a24.39,24.39,0,0,1,8.08,12l.45,1.36a.87.87,0,0,0,.21.67l0,.3a.26.26,0,0,0,.08.36l.1.41a.39.39,0,0,0,.16.5.47.47,0,0,0,0,.47.55.55,0,0,0,.09.54.4.4,0,0,0,.09.42A1.21,1.21,0,0,0,688.3,373.85Zm-24.85,22.42h-5a27.47,27.47,0,0,0-10.33,1.64c-4.9,1.93-8.3,5.17-8.65,10.79-.33,5.11,2.23,9.57,6.87,11.41a21.52,21.52,0,0,0,16.29-.09,14,14,0,0,0,9.21-12.25c.39-3.62.08-7.27.18-10.9,0-.69-.4-.6-.82-.6Z" transform="translate(0 -267.37)"/><path class="cls-1" d="M424.25,364c-.08,3.43-.08,6.87,0,10.3v12.9q-.12,6.1,0,12.21-.12,6.18,0,12.36c-.09,2.53-.08,5.05,0,7.57q0,7,0,14.08l-.27.13c-.45,0-.9-.05-1.34-.05l-15.25-.05c0-1.43,0-2.86-.05-4.29v-48.9q0-6,0-12t0-12.19l0-5.72H424.2l.09.33C424.13,355.13,424.2,359.56,424.25,364Z" transform="translate(0 -267.37)"/><path class="cls-1" d="M291.37,322.83c.35.12.75,0,1.08.22a36,36,0,0,0,2,4.25c1,2,1.86,4,3,5.91a68.89,68.89,0,0,0,3.18,6.45c1.38,3,2.78,5.94,4.38,8.8a73.68,73.68,0,0,0,3.65,7.27c.83,2.17,2,4.18,3,6.25a11,11,0,0,0,1.25,2.35,67.75,67.75,0,0,0,3.17,6.46c0,.14,0,.27.17.32l.14.24a.28.28,0,0,0,.21.29l0,0a20.78,20.78,0,0,0,1.58,3.46c1,1.92,1.83,3.91,2.94,5.77,1.15,2.64,2.48,5.19,3.84,7.74a.86.86,0,0,0,0,.28q1.85,3.7,3.72,7.41c.09.17.07.48.47.43,1.86-3.76,3.74-7.54,5.6-11.32,2-4.09,4-8.18,6-12.27.06-.11.14-.21.2-.33,2.51-5.06,5-10.12,7.54-15.18,1.13-2.3,2.22-4.61,3.32-6.91,4.3-8.44,8.52-16.92,12.59-25.47a1.52,1.52,0,0,0,.52-.88c.35-1.06.95-1.69,2.16-1.51,4.06.08,8.12.09,12.18,0,2.7.13,5.41.06,8.11,0h0c0,.38.09.76.1,1.14,0,3.48-.09,7,.07,10.45a19.56,19.56,0,0,0,0,3.67q-.17,6.48,0,12.95-.17,5.81,0,11.61c0,1.38-.07,2.75-.06,4.12,0,2.62-.1,5.25.07,7.87,0,1.27-.08,2.55-.08,3.83,0,2.84,0,5.68.07,8.53,0,1.18-.06,2.36-.06,3.55,0,2.94,0,5.88.06,8.83,0,1.78-.07,3.57-.06,5.36,0,2.33-.1,4.67.07,7,0,.61-.07,1.21-.07,1.82,0,3.52,0,7,.06,10.55-.1,3.1-.13,6.2,0,9.29-.24.5-.7.37-1.1.37l-8.57,0c-2.14,0-4.29-.06-6.43,0-.82,0-1-.25-1-1a30.12,30.12,0,0,0,0-4c.09-4.12.12-8.23,0-12.35l0-11.8V404c.07-3.67.08-7.34,0-11l0-12.19V368.47l0-3.11v-14.7l-.23,0-4.68,9.56h-.05v.06l-.33.87a.74.74,0,0,0-.31.63.71.71,0,0,0-.29.53c-.13.22-.29.42-.4.65l-6.66,13.63-3.75,7.76a6.65,6.65,0,0,0-.36.56q-3.29,6.67-6.55,13.36-2.53,5.2-5,10.41l-5.08,10.24c-.43.86-.88,1.71-1.26,2.59a1.12,1.12,0,0,1-1.2.74c-1.89,0-3.79,0-5.69,0-1.6,0-3.21-.05-4.81,0a1,1,0,0,1-1-.62c-.62-1.29-1.3-2.56-2-3.84-1.31-2.88-2.68-5.72-4.19-8.5-1.16-2.65-2.43-5.25-3.83-7.78-1.22-2.82-2.59-5.58-4.05-8.29a48.87,48.87,0,0,0-2.27-4.73,20.1,20.1,0,0,0-2-3.78h0a.25.25,0,0,0-.06-.17,71.88,71.88,0,0,0-3.67-7.54c-1.26-2.92-2.68-5.75-4.18-8.55-1.12-2.63-2.42-5.17-3.77-7.69-1.16-2.64-2.45-5.21-3.8-7.75l-.2-.33a.66.66,0,0,0-.27-.61,2.55,2.55,0,0,0-.82-1.43,12.91,12.91,0,0,0,.06,2.59c0,1.56-.08,3.12-.07,4.69,0,2.3-.11,4.6.07,6.89,0,.35-.07.7-.07,1.05q0,6,0,12a15,15,0,0,0,.07,2.59c-.12,2.7-.12,5.41,0,8.11-.17,2.47-.05,4.93-.07,7.4,0,2,0,4,.07,6,0,1-.08,2-.07,3,0,2.82-.11,5.63.07,8.44-.17,2.43-.06,4.87-.07,7.3a47.84,47.84,0,0,0,.07,5.08,74,74,0,0,0,0,7.74c-.06.12-.13.24-.19.37l-8.11,0-7.77,0c-1.31,0-1.31,0-1.32-1.27,0-.28,0-.57,0-.86v-1.16a.15.15,0,0,0,0-.18V394.75c0-.29,0-.57,0-.86V324.4c0-.38-.05-.77-.07-1.15.21-.55.7-.36,1.08-.37h18.9C290.6,322.88,291,322.85,291.37,322.83Z" transform="translate(0 -267.37)"/><path class="cls-1" d="M410.06,316.85a11.07,11.07,0,0,1,7.73-1.41,12.58,12.58,0,0,1,3.8,1.53,11.84,11.84,0,0,1,3.51,4.36,15.81,15.81,0,0,1,.78,3.45,10.25,10.25,0,0,1-1.83,6.05,10.72,10.72,0,0,1-6.66,4.15,5.66,5.66,0,0,0-.58,0,10.32,10.32,0,0,1-9.42-4.11,2.87,2.87,0,0,0-.17-.44A10.08,10.08,0,0,1,406,323a11.56,11.56,0,0,1,2.05-4.39.67.67,0,0,0,.47-.53.48.48,0,0,0,.42-.37.37.37,0,0,0,.33-.29.52.52,0,0,0,.47-.38A.31.31,0,0,0,410.06,316.85Z" transform="translate(0 -267.37)"/><path class="cls-2" d="M214.26,308.06a38.32,38.32,0,0,1,1,8.92c0,10.44,0,20.88,0,31.32-1.4.4-2.39-.53-3.44-1.14-8.43-4.94-17-9.65-25.37-14.7a2.05,2.05,0,0,0-1.56-.5c0,6.81,0,13.64,0,20.47.12,4.54.2,9.07.06,13.6-.25,11.27.21,22.54.09,33.81,0,.92,0,1.84,0,2.76,0,5.3.11,10.6,0,15.9,0,1.2.39,2.73-1.38,3.26-1.15-1.37-.8-3-.8-4.59,0-27.81.2-55.62.12-83.44a12,12,0,0,0-.25-3.73c-.68-2.42-1.51-4.78-2.42-7.13-2.29-5.89-2.18-11.31,3.16-15.67.38-.31.91-.67.74-1.21-.24-.78-1.05-.76-1.68-.81A24.87,24.87,0,0,0,170,308a6.07,6.07,0,0,1-5.24.27,22.58,22.58,0,0,0-16.89.11,5.28,5.28,0,0,1-2.44.51c-6.38-3.5-12.6-7.28-18.9-10.92-15.16-8.75-30.36-17.43-45.48-26.24a27.1,27.1,0,0,1-2.34-1.48c-.53-.39-1.18-.81-.93-1.6s1-.76,1.68-.76c3.35,0,6.7,0,10,0s6.53.28,9.78-.22c18.49,0,37,0,55.53.29-1.58,1.89-3.93.73-6.11,1.47,3.29,2.4,6.77,4,10,5.89,17.68,10.43,35.59,20.43,53.26,30.87A4.84,4.84,0,0,1,214.26,308.06Z" transform="translate(0 -267.37)"/><path class="cls-3" d="M99.08,267.86c-.77.77-1.75.45-2.63.45-5.28,0-10.57,0-15.85,0-.78,0-1.66-.33-2.62.65,4.16,2.46,8.21,4.88,12.29,7.24q15.95,9.22,31.92,18.41,10.09,5.84,20.18,11.68a8.22,8.22,0,0,1,3,2.2c-.11,1-.87,1.37-1.54,1.84a24.52,24.52,0,0,0-9.55,12.13c-.26.75-.41,1.66-1.45,1.83a2.27,2.27,0,0,0-2.06,3,6.65,6.65,0,0,0,.7,1.32,1.71,1.71,0,0,1,0,1.9c-.56.74-1.34.61-2.07.33a32.86,32.86,0,0,1-4.84-2.64C104.87,316.75,85.1,305.44,65.39,294c-11.23-6.51-22.49-13-33.71-19.47-1.29-.75-2.71-1.36-3.54-2.72a43.45,43.45,0,0,1,18.09-4,3.55,3.55,0,0,1,2-.22h49C97.79,267.59,98.48,267.4,99.08,267.86Z" transform="translate(0 -267.37)"/><path class="cls-4" d="M46.24,482.13C20.35,481.56,1,461.72.45,436.43c-.46-4.49-.12-9-.19-13.5-.06-3.76,0-7.52,0-11.28,1-1.1,1,.06,1.31.53a121.79,121.79,0,0,1,.06,12.53,5,5,0,0,0,3,5.19c7.89,4.23,15.54,8.89,23.29,13.36,17.54,10.1,35.12,20.15,52.6,30.36,3.53,2.07,7.1,4.09,10.65,6.14A3.69,3.69,0,0,1,93,481.37c.38.87-.16,1-.85,1q-21.61,0-43.21,0A5.67,5.67,0,0,1,46.24,482.13Z" transform="translate(0 -267.37)"/><path class="cls-5" d="M28.14,271.84C34.07,275.23,40,278.59,45.93,282q14.52,8.37,29,16.77,23,13.38,46.08,26.8,4,2.32,8.08,4.54c.6.32,1.38,1,2,.11.43-.64-.06-1.17-.57-1.72-.83-.9-.46-4.34.49-5s1.58-.44,1.8.73a4.6,4.6,0,0,1-.09,2.7,11,11,0,0,0-.22,3.23c-.14,4,.29,8.06-.23,12.07-1.27,1.53-2.06.05-2.81-.58a92.47,92.47,0,0,0-13.92-9.79c-10.65-6.05-22.17-9.63-34.12-12-3.19-.63-6.4-1.18-9.64-1.54-.74-.08-1.53-.09-2-.87.22-.81.71-.63,1.24-.47-1-.26-2.07.34-3-.32a5.45,5.45,0,0,1-.62-.35c-8.52-5.33-17.35-10.14-26-15.26-9-5.33-18.17-10.38-27.23-15.62-.85-.5-1.82-.91-2.14-2A39.07,39.07,0,0,1,28.14,271.84Z" transform="translate(0 -267.37)"/><path class="cls-6" d="M.52,411.21q0,12.62-.07,25.22c-.67-1.77-.4-3.63-.4-5.43q0-56,0-112a47.38,47.38,0,0,1,1-10.95c.53-2.82,1.19-3.1,4-1.41,8.49,5.07,17.13,9.88,25.67,14.86,6.3,3.67,12.61,7.31,18.91,11a6.1,6.1,0,0,0,3.07,1c.9,0,1.89,0,2.27,1.14-2.26,2.73-5.37,4.43-8.06,6.62a60.79,60.79,0,0,0-11.8,13.46c-.58.86-1,2.05-2.36,1.91-4-1.55-7.53-4-11.25-6.07C15.19,347,9,343.35,2.75,339.77a3.55,3.55,0,0,1-2-3.63c.15-3.11,0-6.23,0-9.35.42,12,.77,24,.55,36.09.24,10.57.12,21.13.08,31.69-.23,4.52,0,9-.11,13.56C1.18,409.19,1.43,410.34.52,411.21Z" transform="translate(0 -267.37)"/><path class="cls-7" d="M46.24,482.13H93.05c1.09-1.09,2.49-.85,3.8-.85,6.53,0,13.06-.1,19.58.09,2.56-.13,5.11-.08,7.66,0,7.54.06,15.08,0,22.69-.34-2.33-1.67-4.95-2.65-6.65-4.94a1.75,1.75,0,0,0-1.66-.4,2.93,2.93,0,0,1-3.23-1.36c-.14-.21-.38-.54-.54-.49-3.37,1-4.24-2.17-5.95-3.69s-4.22-.36-5.16-2a7.56,7.56,0,0,0-4.34-3.46,6,6,0,0,0-.7-.28A24.61,24.61,0,0,1,107.19,458c-3.44-3.33-7.78-5.74-12.15-7.85-1.2-.58-2-1.71-3.23-2.1-2.42-.05-4.84.3-7.23-.21-.4-.23-.76-.48-.6-1a3.37,3.37,0,0,1,2.59-.68,67.66,67.66,0,0,0,26-4.16,2.72,2.72,0,0,1,1-.12c.62.08,1.12.32,1.23,1a1.77,1.77,0,0,0,1.48,1.52c4.36,1,7.58,4.17,11.41,6.19,5.53,2.91,10.9,6.17,16.28,9.37,5.89,3.51,11.86,6.91,17.8,10.31,4.72,2.71,9.35,5.57,14.08,8.26.91.51,2.4.82,1.7,2.51a59.23,59.23,0,0,1-13.9,1.53q-56,.06-112,0C49.86,482.59,48,482.84,46.24,482.13Z" transform="translate(0 -267.37)"/><path class="cls-6" d="M183.64,421.75c.74-.77.44-1.73.44-2.62,0-5.5,0-11,0-16.49,2.19,1,2.76,3.07,2.61,5.13-.19,2.69,1,4.11,3.21,5.32,7,3.83,13.74,7.93,20.63,11.86a15.52,15.52,0,0,1,4.65,3.34c.24,10-.95,19.74-5.48,28.84a13.55,13.55,0,0,1-.94,1.43c-10.46-6-20.88-12.14-31.38-18.1a4,4,0,0,1-2-2.1c-.05-1,.7-1.64,1.3-2.32a23.14,23.14,0,0,0,5.81-11.94A3.51,3.51,0,0,1,183.64,421.75Z" transform="translate(0 -267.37)"/><path class="cls-8" d="M175.61,438.37c4.79,3.45,10.14,6,15.19,9,5.69,3.41,11.46,6.69,17.21,10a1.48,1.48,0,0,1,.77,1.19,38.09,38.09,0,0,1-15.14,15.94c-6.29-3.31-12.39-6.95-18.52-10.54-14.87-8.7-29.93-17.09-44.77-25.85-4.06-2.39-4.17-2.64-.39-5.44,1.15-.86,2.11-2.67,4.08-1.6a3.58,3.58,0,0,1,1.64,2.93,1.51,1.51,0,0,0,.9,1.6,1.25,1.25,0,0,1,.59,1.07c0,.58.46.81.93,1a1.47,1.47,0,0,1,.68,1.06,9,9,0,0,0,5.74,4.35c5.92,2.62,12,3.55,18.34,1.75a29,29,0,0,0,10.19-5.27C173.79,439,174.38,437.94,175.61,438.37Z" transform="translate(0 -267.37)"/><path class="cls-9" d="M133.86,431.18c-1.71-.11-2.51,1.41-3.75,2.13a21.45,21.45,0,0,0-2.67,2.26c4.12,2.44,8.15,4.87,12.22,7.22q15.87,9.19,31.78,18.34c6.72,3.87,13.42,7.77,20.13,11.63a4.63,4.63,0,0,1,2.07,1.74c-5,3.17-10.19,5.67-16.08,6.56-.82-2.26-3.25-2.37-4.85-3.58-4.13-3.1-8.79-5.39-13.25-7.93-7.07-4-14.15-8-21.17-12.15-6.43-3.77-13.22-6.94-19.22-11.42-1-.77-2.23-.57-3.32-.94-1.46-.49-2-1.29-1.72-2.73.18-1.08,1-1.22,1.89-1.34a4.82,4.82,0,0,0,4.16-2.09c4.13-2.94,8.43-5.65,12.23-9a1.32,1.32,0,0,1,1.18-.26A1,1,0,0,1,133.86,431.18Z" transform="translate(0 -267.37)"/><path class="cls-10" d="M99.08,267.86l-52.85-.05a16.53,16.53,0,0,1,5.2-.42q56.16,0,112.34,0c12.67,0,24.63,2.64,34.59,11.15,9.09,7.77,14.57,17.53,15.9,29.5q-10.75-6.15-21.52-12.31-21.57-12.39-43.13-24.84c-.92-.53-2.66-.9-2.29-2.15.28-1,1.94-.35,3-.41a13.85,13.85,0,0,0,4-.49Z" transform="translate(0 -267.37)"/><path class="cls-3" d="M184.1,351.83V330.39l31.1,17.91v31.2c-1.28.76-2.29-.12-3.22-.69-7.83-4.81-16-9.07-23.92-13.7a4.56,4.56,0,0,1-2.62-4.47A21.34,21.34,0,0,0,184.1,351.83Z" transform="translate(0 -267.37)"/><path class="cls-11" d="M12.07,283.42q14.06,8.11,28.12,16.24,12.36,7.13,24.74,14.23a7.58,7.58,0,0,1,3,2.23,3.69,3.69,0,0,1-4.63-.24c-1.25-.89-2.47-1.51-3.85-.32s-.91,2.44-.34,3.69c1,2.21,1.58,4.59,2.68,6.78.4.82.86,1.77.14,2.59s-1.86.55-2.79.16a78.36,78.36,0,0,1-9.22-5.15c-13-7.69-26.2-15-39.16-22.67a19.06,19.06,0,0,0-7.35-3A39.32,39.32,0,0,1,12.07,283.42Z" transform="translate(0 -267.37)"/><path class="cls-11" d="M215.2,428.29c-3-1.22-5.61-3.19-8.42-4.78-6.36-3.6-12.65-7.34-19-10.95-1.15-.65-1.83-1.36-1.66-2.72a9.4,9.4,0,0,0-2-7.2V365.92c1.56.32,1.16,1.63,1.18,2.59.08,3.75.1,7.51,0,11.26a4.15,4.15,0,0,0,2.43,4.2c8.47,4.67,16.76,9.67,25.15,14.5a4.61,4.61,0,0,1,2.34,2.14Z" transform="translate(0 -267.37)"/><path class="cls-5" d="M215.2,400.61c-9.83-5.47-19.34-11.5-29.31-16.74a2.68,2.68,0,0,1-1.3-2.76q0-6.28,0-12.58c0-.88.32-1.86-.49-2.61V351.83c2.2,2.56,2.22,5.63,2,8.72a3.63,3.63,0,0,0,1.88,3.77q12.67,7.23,25.38,14.45a14.23,14.23,0,0,0,1.85.73Z" transform="translate(0 -267.37)"/><path class="cls-11" d="M3.38,298a4,4,0,0,1,4,.37c16.38,9.35,32.75,18.72,49,28.29,1.51.89,3.49,2.81,4.9,1.73s-.9-2.79-1.22-4.34a21.09,21.09,0,0,0-2-5.1,3.41,3.41,0,0,1,1.08-4.27,2.65,2.65,0,0,1,3.68,0c1.5,1.65,3.26,1.37,5.05,1.41a.53.53,0,0,1-.12.73c-1,.65-2.14.39-3.22.48a10,10,0,0,1-2.26-.17c-.48.25-1.33-1.08-1.52.37,1.49,3.36,2.73,6.81,4.13,10.19.71,1.7.32,2.89-1.45,3.58-2.09.82-4,1.95-6.08,2.89-.8.37-1.59,1-2.56.47C42.66,331,32.9,322.87,21.89,317.08c-6-3.18-11.88-6.73-17.74-10.24-1.84-1.11-2.57-.42-3.14,1.22A31.83,31.83,0,0,1,3.38,298Z" transform="translate(0 -267.37)"/><path class="cls-12" d="M183.64,421.75l-.57,2.51c-10.3-7.14-21.54-12.7-32.24-19.17-.72-.44-1.49-.8-1.81-1.66-.09-3.13,1.07-6.06,1.38-9.13,1.81-18-3.18-33.7-15.41-47.09-1.24-1.34-3.25-2.2-3.22-4.48l.06-12.9a.39.39,0,0,1,.68,0c.88,1.71-.2,3.42,0,5.16.22,2.16.05,4.36.06,6.55,0-2.8,0-5.6,0-8.4,0-1.51,1-1.33,1.91-1a28.38,28.38,0,0,1,4.63,2.51,7.7,7.7,0,0,0,3.7,1.43,1.77,1.77,0,0,1,.69,1,5,5,0,0,0,5.39,4,4.81,4.81,0,0,1,1.45.26c3.62,1.4,6.84,3.56,10.15,5.49,6.58,3.85,13.16,7.71,19.78,11.49a4.62,4.62,0,0,1,2.64,4.6c-.13,8.82-.06,17.65-.06,26a14.42,14.42,0,0,1,0-1.95c0-8.47.46-17-.13-25.38-.66-9.63-.14-19.24-.4-28.85,0-1.3-.31-2.72.84-3.78.69,1.25.42,2.62.42,3.94q0,43,0,86C183.58,419.91,183.62,420.83,183.64,421.75Z" transform="translate(0 -267.37)"/><path class="cls-13" d="M142.78,336.24c-.63,1-1.36.6-2.11.17-1.79-1.05-3.55-2.16-5.4-3.11-2.44-1.26-2.47-1.21-2.48,1.5a32.64,32.64,0,0,1-.58,7.43V329.55a4.45,4.45,0,0,1,.06-2.86c.19-.82-.13-1.74.54-2.45a27.62,27.62,0,0,1,12.55-15.71c7-3.11,14-3.8,21.06-.41.94.45,1.54.06,2.29-.33a30.35,30.35,0,0,1,12.21-3.46,13.22,13.22,0,0,1,2.73.2c.82.12,1.77.3,1.93,1.29s-.69,1.24-1.31,1.67a10.69,10.69,0,0,0-4.17,13l3.06,8.58q0,29.37-.07,58.74v3.1a4,4,0,0,1-.49-2.76q0-12.67,0-25.35a2.88,2.88,0,0,0-1.62-3c-8.54-4.84-17-9.79-25.5-14.71l-5.6-3.24c.13-.85.85-1.22,1.39-1.72a4.35,4.35,0,0,0,1.15-5.05,4.52,4.52,0,0,0-8.31-.57C143.74,335.12,143.57,335.91,142.78,336.24Z" transform="translate(0 -267.37)"/><path class="cls-14" d="M116.69,482.12H93.05c-2.54-2.47-5.8-3.81-8.77-5.58C77.2,472.3,70,468.28,62.83,464.18c-13.73-7.88-27.48-15.72-41.19-23.63-6.34-3.66-12.59-7.48-19-11.09A3.06,3.06,0,0,1,1,426.26c.07-4.52,0-9,0-13.56.35-.15.77-.13.92.15,1.67,3.15,5.3,3.66,7.74,5.77.25.22-.09.13.2.13,4.91.05,7.62,4.19,11.19,6.48,5.83,3.72,12.19,6.47,17.88,10.37.62.43,1.31,1,2,.93,2.55-.31,3.83,1.61,5.58,2.81,4.31,3,8.39,6.35,13.51,7.94a5,5,0,0,1,2.86,1.9,4,4,0,0,0,2.26,1.5,4.43,4.43,0,0,1,1.61.68c5.57,4.62,12.22,7.5,18.41,11.06,5.34,3.07,10.33,6.84,16.12,9.06,2.39.92,4.59,1.81,6.08,4a1.52,1.52,0,0,0,1.07.63c3.48.13,4.92,3.57,7.76,4.75A1,1,0,0,1,116.69,482.12Z" transform="translate(0 -267.37)"/><path class="cls-14" d="M116.69,482.12c-3-1.41-4.59-5-8.32-5.23a1.56,1.56,0,0,1-1.1-.55c-2.64-3.84-7.33-4.14-10.82-6.45-2.68-1.76-5.55-3.21-8.14-5.14-1.71-1.27-3.89-2-5.84-3.07-2.81-1.53-5.47-3.3-8.28-4.84a21.31,21.31,0,0,0-3.56-1.74,4.36,4.36,0,0,1-2.49-1.54,5.09,5.09,0,0,0-3.65-2.38c-1-.12-2-.43-2.21-1.71-.19-1-1.11-1.21-1.89-1.46a35.57,35.57,0,0,1-11.51-6.4c-1.82-1.5-4-4.06-5.82-4.13-4.29-.18-6.91-3.13-10.28-4.69a76.6,76.6,0,0,1-8.9-4.67c-2.47-1.55-5.37-2.8-7.37-4.91-1.79-1.9-3.24-3.68-6.12-3.11-2.31-3-7.15-2.73-8.64-6.78-.1-.26-.5-.42-.76-.62,0-.54.09-1.12-.47-1.49v-16.6c.73-.12.84.44,1,.92.27,3.68.12,7.37.09,11.06a4.12,4.12,0,0,0,2.09,4c5.3,3.19,10.8,6.05,16.07,9.32,8.67,5.37,17.73,10.09,26.48,15.35,10.26,6.17,20.76,11.95,31.15,17.92,8.84,5.08,17.83,9.93,26.48,15.38,5.45,3.43,11.12,6.52,16.81,9.57a14.18,14.18,0,0,1,3.19,2c.56.54,1.49,1,.83,2.05Z" transform="translate(0 -267.37)"/><path class="cls-15" d="M131.77,342.73c3.89,4.15,7.82,8.24,10.82,13.14A58.81,58.81,0,0,1,151,394.79c-.36,3-1.2,5.88-1.64,8.85a2.78,2.78,0,0,1-.12,2.19c-3.1,8.48-7.37,16.23-13.91,22.59a4.39,4.39,0,0,1-2.07,1.34,83.54,83.54,0,0,1-13.08,9.59,9.84,9.84,0,0,1-4,2,4.32,4.32,0,0,0-2.15.95,72,72,0,0,1-30,4.63c-1.72.9-3.48.22-5.13-.05-14-2.35-26.24-8.27-36.25-18.5a50.54,50.54,0,0,1-5.11-5.83c-.26-.37-.5-.75-.78-1.11a51.37,51.37,0,0,1-3.38-5c-.23-.4-.47-.79-.73-1.18-1-1.69-1.86-3.49-2.8-5.24a59.2,59.2,0,0,1-4.74-31.75,61.52,61.52,0,0,1,6.11-19.48c.5-.93.81-2,2-2.46a68.06,68.06,0,0,1,20.17-20.83,15.13,15.13,0,0,1,1.48-.82c2.93-1.4,5.85-2.85,8.82-4.17,1-.47,1.39-.84.88-2-1.63-3.75-3.13-7.56-4.67-11.35.36-1.35,1.25-.67,2-.53l2.28.08a11,11,0,0,0,4.08.09,1.9,1.9,0,0,1,1.53.44,211.85,211.85,0,0,1,21.14,4.07C106.12,325.38,120,332,131.77,342.73Z" transform="translate(0 -267.37)"/><path class="cls-11" d="M69.75,317.2l-1.35-.11a1.2,1.2,0,0,1-.5-.47v-.5L72,317Z" transform="translate(0 -267.37)"/><path class="cls-3" d="M132.27,326.69l-.06,2.86-.38.28C131.9,328.77,131.39,327.63,132.27,326.69Z" transform="translate(0 -267.37)"/><path class="cls-7" d="M25.7,378.18c-.81,9.59-.1,19,3.41,28.06.51,1.31,1,2.64,1.5,4-.29.63.62,1.28,0,1.91-2,2.07-2,2.08-4.08-.09a6.06,6.06,0,0,0-2.37-1.33c-1.93-.76-4-1.35-5.24-3.19-.39-.59-.77-.5-1.26-.45a2,2,0,0,1-1.44-.33c-2.53-2.1-5.9-3-8.11-5.54a3.23,3.23,0,0,0-1.67-1.06c-2.61-.57-4.07-2.48-5.44-4.52a1.05,1.05,0,0,0-.47-1v-32.2c.87-.33,1.4.34,2,.72,7.23,4.47,14.65,8.62,22.08,12.74C25.69,376.48,26.16,377,25.7,378.18Z" transform="translate(0 -267.37)"/><path class="cls-8" d="M25.7,378.18c-.14-.57,0-1-.84-1.5-7.43-4.13-14.77-8.41-22.12-12.67a23.11,23.11,0,0,1-2.22-1.6V325.77H1c0,3.45,0,6.9,0,10.36a2.52,2.52,0,0,0,1.42,2.61c9.77,5.55,19.5,11.17,29.24,16.77.5.29,1,.54,1.53.8A69.31,69.31,0,0,0,25.7,378.18Z" transform="translate(0 -267.37)"/><path class="cls-16" d="M1,395.6a4.53,4.53,0,0,1,2.27,1.86,3.47,3.47,0,0,0,2.35,1.7c2.53.55,4,3.18,6,4,2.37.95,3.92,4.15,7.11,3,.29-.11.74-.33.73.2-.06,2.84,2.62,2.77,4.12,3.36,2.09.82,3.9,1.57,4.7,3.8,1.09-.45,1.16-1.94,2.44-1.81,1.35.82,1.15,2.74,2.51,3.54l.55,1a14.29,14.29,0,0,0,3.46,5.12l.65.88a16.42,16.42,0,0,0,4.9,5.61,67,67,0,0,0,28.94,16.83A112.23,112.23,0,0,0,84,446.94l.5.47a26.37,26.37,0,0,0,8,0c2.92,2.75,6.69,4.11,10,6.19,1.94,1.2,3.15,3.5,5.71,3.82.42.06.72.66.54,1.25s.18,1.11.41,1.06c2.6-.53,3.36,2.36,5.38,2.82a45.16,45.16,0,0,1,7.08,2.34c.74.3,1.42.58,1.66,1.36.46,1.45,1.26,1.9,2.89,2.15,2.36.36,4.78,1.28,5.29,4.35.15.87,1,1,1.77.31.56-.55,1.57-.74,1.76-.25.87,2.28,2.54,2.47,4.57,2.19a1.36,1.36,0,0,1,1.08.56c1.58,2.49,4.24,3.33,6.7,4.47.39.18.86.27.76.81a1.27,1.27,0,0,1-.86,1.13,10.09,10.09,0,0,1-2,.13H124.74c-.53-1.46-1.83-2.1-3-2.77-8.12-4.44-16.2-9-24-14-4.7-3-9.87-5.27-14.62-8.2-9.14-5.65-18.85-10.32-27.92-16.09-4.55-2.9-9.35-5.41-14-8.12-6.3-3.64-12.54-7.41-18.9-10.94-5.43-3-10.5-6.61-16.19-9.19C2.92,411.44.2,409.54.9,405.13,1.39,402,1,398.78,1,395.6Z" transform="translate(0 -267.37)"/><path class="cls-14" d="M92.53,447.42a13.65,13.65,0,0,1-8,0Z" transform="translate(0 -267.37)"/><path class="cls-17" d="M133.28,429.76a63.41,63.41,0,0,0,16.1-26.12l22,12.65c2.81,1.61,5.56,3.32,8.44,4.78a6.44,6.44,0,0,1,3.25,3.19c-.67,5.66-3.84,10-7.46,14.11-6.19,5.44-13.22,8.67-21.66,8.05a24.25,24.25,0,0,1-10.08-3.06c-2.15-1.12-4.2-2.34-5.39-4.58l-.69-.85a1.68,1.68,0,0,1-.88-1.13l-.62-.93c-.65-.31-.79-.94-.94-1.56-.5-1-1-2.09-1.49-3.13A1.69,1.69,0,0,0,133.28,429.76Z" transform="translate(0 -267.37)"/><path class="cls-9" d="M138.48,438.78l5.39,4.58C141.58,443.05,138.74,440.63,138.48,438.78Z" transform="translate(0 -267.37)"/><path class="cls-9" d="M135.35,434.31l.94,1.56C135,435.92,135.12,435.16,135.35,434.31Z" transform="translate(0 -267.37)"/><path class="cls-9" d="M136.91,436.8c.29.38.58.76.88,1.13C136.93,438,136.37,437.82,136.91,436.8Z" transform="translate(0 -267.37)"/><path class="cls-7" d="M116.18,441.36l4-2A3.42,3.42,0,0,1,116.18,441.36Z" transform="translate(0 -267.37)"/><path class="cls-5" d="M67.9,316.62l.5.47a11.14,11.14,0,0,1-4.26-.42Z" transform="translate(0 -267.37)"/><path class="cls-5" d="M61.86,316.59c-.64.3-1.51-.27-2,.53C59.82,315.92,60.18,315.82,61.86,316.59Z" transform="translate(0 -267.37)"/><path class="cls-18" d="M142.78,336.24c1.23-3.9,3.64-5.64,6.69-4.78a5.07,5.07,0,0,1,4,4.37c.43,2.92-1.1,4.75-3.56,6C145.13,342,143.42,340.64,142.78,336.24Z" transform="translate(0 -267.37)"/><path class="cls-17" d="M152.29,384.67V390H152v-5.34Z" transform="translate(0 -267.37)"/><path class="cls-3" d="M165,341.83a5.42,5.42,0,0,1-3.78-5.08,5,5,0,0,1,2.93-4.9,4.85,4.85,0,0,1,5.64.58c2.54,2.06,3.58,6.82-1.82,9.42A5.45,5.45,0,0,1,165,341.83Z" transform="translate(0 -267.37)"/><path class="cls-12" d="M165,341.83l3,0A2.48,2.48,0,0,1,165,341.83Z" transform="translate(0 -267.37)"/><path class="cls-19" d="M117.77,383.07a8.24,8.24,0,0,1,0-16.48A8.31,8.31,0,0,1,126,375,8.22,8.22,0,0,1,117.77,383.07Z" transform="translate(0 -267.37)"/><path class="cls-20" d="M91.19,374.82a8.19,8.19,0,1,1-8.1-8.23A8.24,8.24,0,0,1,91.19,374.82Z" transform="translate(0 -267.37)"/><path class="cls-14" d="M42.74,427.81c-2.16-.87-4.53-3.59-4.9-5.61Z" transform="translate(0 -267.37)"/><path class="cls-14" d="M37.19,421.32a6.89,6.89,0,0,1-3.46-5.12Z" transform="translate(0 -267.37)"/><path class="cls-14" d="M33.18,415.23c-1.89-.43-1.52-2.47-2.51-3.54-.13-.49-.75-1-.06-1.49Z" transform="translate(0 -267.37)"/><path class="cls-8" d="M4.91,371.63c1.29.69,2.28,1.86,3.71,2.36.36.13.25.72-.3.9-.86.28-4-1.42-4.18-2.32C4,372,4.18,371.61,4.91,371.63Z" transform="translate(0 -267.37)"/><path class="cls-8" d="M16.43,378.73a6.33,6.33,0,0,1,3.46.95c.37.21.69.56.42,1a.89.89,0,0,1-.84.19C18.67,380.11,17.32,380.15,16.43,378.73Z" transform="translate(0 -267.37)"/><path class="cls-7" d="M140.73,477.38a.61.61,0,0,1-.63.6.6.6,0,0,1-.63-.8.58.58,0,0,1,.71-.47C140.58,476.74,140.69,477,140.73,477.38Z" transform="translate(0 -267.37)"/></svg>